<?xml version="1.0" standalone="no"?>
<!DOCTYPE svg PUBLIC "-//W3C//DTD SVG 20010904//EN"
 "http://www.w3.org/TR/2001/REC-SVG-20010904/DTD/svg10.dtd">
<svg version="1.0" xmlns="http://www.w3.org/2000/svg"
 width="260.000000pt" height="260.000000pt" viewBox="0 0 260.000000 260.000000"
 preserveAspectRatio="xMidYMid meet">
<metadata>
Created by potrace 1.11, written by Peter Selinger 2001-2013
</metadata>
<g transform="translate(0.000000,260.000000) scale(0.100000,-0.100000)"
fill="#000000" stroke="none">
<path d="M960 1899 c0 -205 -3 -260 -12 -256 -108 45 -147 58 -213 66 -224 28
-403 -74 -508 -289 -62 -125 -82 -237 -73 -400 16 -284 105 -460 271 -536 158
-73 336 -42 493 84 l42 34 0 -61 0 -61 100 0 100 0 0 840 0 840 -100 0 -100 0
0 -261z m-72 -404 l72 -27 0 -349 0 -348 -56 -40 c-77 -55 -154 -83 -242 -89
-193 -12 -284 107 -299 388 -13 262 74 441 236 487 71 20 201 10 289 -22z"/>
<path d="M1310 1321 l0 -843 348 4 347 4 79 27 c99 35 152 66 222 129 163 149
191 441 60 619 -35 48 -123 112 -178 131 -53 18 -53 24 7 63 63 42 124 116
152 185 27 67 25 228 -4 291 -30 66 -88 126 -155 160 -105 53 -152 59 -530 66
l-348 6 0 -842z m540 639 c147 -9 190 -21 238 -69 53 -53 66 -184 27 -277 -19
-45 -73 -91 -135 -115 -48 -18 -79 -21 -250 -22 l-195 -2 -3 235 c-1 129 0
240 2 247 6 15 112 16 316 3z m95 -680 c186 -24 267 -110 269 -285 1 -99 -18
-157 -71 -211 -86 -89 -182 -113 -450 -114 l-163 0 0 303 c0 167 3 307 7 310
10 10 327 8 408 -3z"/>
</g>
</svg>
